# xmcd CD database file
#
# Track frame offsets:
#	150
#	20122
#	40619
#	68557
#	91056
#	116907
#	151933
#	168818
#	189510
#	211430
#
# Disc length: 3313 seconds
#
# Revision: 0
# Processed by: cddbd v1.5.1PL0 Copyright (c) Steve Scherf et al.
# Submitted via: CDex 1.51
#
DISCID=7a0cef0a
DTITLE=Laika - good looking blues
DYEAR=1900
DGENRE=Blues
TTITLE0=black cat bone
TTITLE1=moccasin
TTITLE2=t. street
TTITLE3=Uneasy
TTITLE4=good looking blues
TTITLE5=widow's weed
TTITLE6=glory cloud
TTITLE7=go fish
TTITLE8=badtimes
TTITLE9=knowing too little
EXTD=
EXTT0=
EXTT1=
EXTT2=
EXTT3=
EXTT4=
EXTT5=
EXTT6=
EXTT7=
EXTT8=
EXTT9=
PLAYORDER=
